<svg width="70" height="79" viewBox="0 0 70 79" fill="none" xmlns="http://www.w3.org/2000/svg">
<rect x="5.53832" y="63.1126" width="68.9233" height="13.9631" rx="6.98156" stroke="#2E6EFF1F" stroke-opacity="0.94" stroke-width="5.8486"/>
<path d="M29.3154 64.6377L29.3154 54.7787C29.3154 48.9106 34.0725 44.1536 39.9406 44.1536C45.8087 44.1536 50.5657 48.9106 50.5657 54.7787L50.5657 64.6377L29.3154 64.6377Z" fill="#2E6EFF1F" fill-opacity="0.94"/>
<path d="M13.3759 39.0325V62.0771H66.5016V39.0325" stroke="#2E6EFF1F" stroke-opacity="0.94" stroke-width="5.8486"/>
<path d="M69.6645 15.2478C68.5184 11.3449 64.7919 8.58656 60.6653 8.58656L48.4028 8.58658L51.63 29.6922C52.3617 34.4773 56.9533 37.9569 61.8458 37.4339L65.8072 37.0103C71.0872 36.4458 74.4352 31.4938 72.9519 26.4426L69.6645 15.2478Z" stroke="#2E6EFF1F" stroke-opacity="0.94" stroke-width="5.8486"/>
<path d="M10.3342 15.2478C11.4803 11.3449 15.2068 8.5866 19.3334 8.5866L31.5959 8.58658L28.3687 29.6923C27.637 34.4773 23.0453 37.9569 18.1529 37.4339L14.1914 37.0103C8.91144 36.4458 5.56348 31.4938 7.04681 26.4426L10.3342 15.2478Z" stroke="#2E6EFF1F" stroke-opacity="0.94" stroke-width="5.8486"/>
<path d="M29.6497 34.6252L32.9322 8.69341H48.0358L52.4098 34.7697C50.4747 36.4714 46.7156 38.9555 40.4329 38.9555C36.5657 38.9555 34.0602 37.975 32.3792 36.9225C31.1787 36.1708 30.3655 35.3815 29.6497 34.6252Z" stroke="#2E6EFF1F" stroke-opacity="0.94" stroke-width="5.8486"/>
</svg>
